<svg width="102" height="8" viewBox="0 0 102 8" fill="none" xmlns="http://www.w3.org/2000/svg">
<path d="M0.231 3.536C0.231 3.05067 0.336 2.619 0.546 2.241C0.756 1.85833 1.04767 1.562 1.421 1.352C1.799 1.13733 2.226 1.03 2.702 1.03C3.28533 1.03 3.78467 1.184 4.2 1.492C4.61533 1.8 4.893 2.22 5.033 2.752H3.717C3.619 2.54667 3.479 2.39033 3.297 2.283C3.11967 2.17567 2.91667 2.122 2.688 2.122C2.31933 2.122 2.02067 2.25033 1.792 2.507C1.56333 2.76367 1.449 3.10667 1.449 3.536C1.449 3.96533 1.56333 4.30833 1.792 4.565C2.02067 4.82167 2.31933 4.95 2.688 4.95C2.91667 4.95 3.11967 4.89633 3.297 4.789C3.479 4.68167 3.619 4.52533 3.717 4.32H5.033C4.893 4.852 4.61533 5.272 4.2 5.58C3.78467 5.88333 3.28533 6.035 2.702 6.035C2.226 6.035 1.799 5.93 1.421 5.72C1.04767 5.50533 0.756 5.209 0.546 4.831C0.336 4.453 0.231 4.02133 0.231 3.536ZM7.54403 6.056C7.16136 6.056 6.81603 5.97433 6.50803 5.811C6.2047 5.64767 5.96436 5.41433 5.78703 5.111C5.61436 4.80767 5.52803 4.453 5.52803 4.047C5.52803 3.64567 5.6167 3.29333 5.79403 2.99C5.97136 2.682 6.21403 2.44633 6.52203 2.283C6.83003 2.11967 7.17536 2.038 7.55803 2.038C7.9407 2.038 8.28603 2.11967 8.59403 2.283C8.90203 2.44633 9.1447 2.682 9.32203 2.99C9.49936 3.29333 9.58803 3.64567 9.58803 4.047C9.58803 4.44833 9.49703 4.803 9.31503 5.111C9.1377 5.41433 8.8927 5.64767 8.58003 5.811C8.27203 5.97433 7.9267 6.056 7.54403 6.056ZM7.54403 5.02C7.7727 5.02 7.96636 4.936 8.12503 4.768C8.28836 4.6 8.37003 4.35967 8.37003 4.047C8.37003 3.73433 8.2907 3.494 8.13203 3.326C7.97803 3.158 7.7867 3.074 7.55803 3.074C7.3247 3.074 7.13103 3.158 6.97703 3.326C6.82303 3.48933 6.74603 3.72967 6.74603 4.047C6.74603 4.35967 6.8207 4.6 6.97003 4.768C7.12403 4.936 7.31536 5.02 7.54403 5.02ZM11.4201 2.647C11.5367 2.465 11.6977 2.318 11.9031 2.206C12.1084 2.094 12.3487 2.038 12.6241 2.038C12.9461 2.038 13.2377 2.11967 13.4991 2.283C13.7604 2.44633 13.9657 2.67967 14.1151 2.983C14.2691 3.28633 14.3461 3.63867 14.3461 4.04C14.3461 4.44133 14.2691 4.796 14.1151 5.104C13.9657 5.40733 13.7604 5.643 13.4991 5.811C13.2377 5.97433 12.9461 6.056 12.6241 6.056C12.3534 6.056 12.1131 6 11.9031 5.888C11.6977 5.776 11.5367 5.63133 11.4201 5.454V7.862H10.2231V2.094H11.4201V2.647ZM13.1281 4.04C13.1281 3.74133 13.0441 3.508 12.8761 3.34C12.7127 3.16733 12.5097 3.081 12.2671 3.081C12.0291 3.081 11.8261 3.16733 11.6581 3.34C11.4947 3.51267 11.4131 3.74833 11.4131 4.047C11.4131 4.34567 11.4947 4.58133 11.6581 4.754C11.8261 4.92667 12.0291 5.013 12.2671 5.013C12.5051 5.013 12.7081 4.92667 12.8761 4.754C13.0441 4.57667 13.1281 4.33867 13.1281 4.04ZM18.964 2.094L16.514 7.855H15.226L16.122 5.867L14.533 2.094H15.87L16.773 4.537L17.669 2.094H18.964ZM20.5939 2.745C20.7339 2.53033 20.9089 2.36233 21.1189 2.241C21.3289 2.115 21.5622 2.052 21.8189 2.052V3.319H21.4899C21.1912 3.319 20.9672 3.38433 20.8179 3.515C20.6686 3.641 20.5939 3.865 20.5939 4.187V6H19.3969V2.094H20.5939V2.745ZM22.993 1.688C22.783 1.688 22.6104 1.62733 22.475 1.506C22.3444 1.38 22.279 1.226 22.279 1.044C22.279 0.857333 22.3444 0.703333 22.475 0.582C22.6104 0.456 22.783 0.393 22.993 0.393C23.1984 0.393 23.3664 0.456 23.497 0.582C23.6324 0.703333 23.7 0.857333 23.7 1.044C23.7 1.226 23.6324 1.38 23.497 1.506C23.3664 1.62733 23.1984 1.688 22.993 1.688ZM23.588 2.094V6H22.391V2.094H23.588ZM25.9395 2.038C26.2148 2.038 26.4552 2.094 26.6605 2.206C26.8705 2.318 27.0315 2.465 27.1435 2.647V2.094H28.3405V5.993C28.3405 6.35233 28.2682 6.67667 28.1235 6.966C27.9835 7.26 27.7665 7.49333 27.4725 7.666C27.1832 7.83867 26.8215 7.925 26.3875 7.925C25.8088 7.925 25.3398 7.78733 24.9805 7.512C24.6212 7.24133 24.4158 6.87267 24.3645 6.406H25.5475C25.5848 6.55533 25.6735 6.672 25.8135 6.756C25.9535 6.84467 26.1262 6.889 26.3315 6.889C26.5788 6.889 26.7748 6.81667 26.9195 6.672C27.0688 6.532 27.1435 6.30567 27.1435 5.993V5.44C27.0268 5.622 26.8658 5.77133 26.6605 5.888C26.4552 6 26.2148 6.056 25.9395 6.056C25.6175 6.056 25.3258 5.97433 25.0645 5.811C24.8032 5.643 24.5955 5.40733 24.4415 5.104C24.2922 4.796 24.2175 4.44133 24.2175 4.04C24.2175 3.63867 24.2922 3.28633 24.4415 2.983C24.5955 2.67967 24.8032 2.44633 25.0645 2.283C25.3258 2.11967 25.6175 2.038 25.9395 2.038ZM27.1435 4.047C27.1435 3.74833 27.0595 3.51267 26.8915 3.34C26.7282 3.16733 26.5275 3.081 26.2895 3.081C26.0515 3.081 25.8485 3.16733 25.6805 3.34C25.5172 3.508 25.4355 3.74133 25.4355 4.04C25.4355 4.33867 25.5172 4.57667 25.6805 4.754C25.8485 4.92667 26.0515 5.013 26.2895 5.013C26.5275 5.013 26.7282 4.92667 26.8915 4.754C27.0595 4.58133 27.1435 4.34567 27.1435 4.047ZM31.6075 2.052C32.0555 2.052 32.4148 2.20133 32.6855 2.5C32.9561 2.794 33.0915 3.2 33.0915 3.718V6H31.9015V3.879C31.9015 3.61767 31.8338 3.41467 31.6985 3.27C31.5631 3.12533 31.3811 3.053 31.1525 3.053C30.9238 3.053 30.7418 3.12533 30.6065 3.27C30.4711 3.41467 30.4035 3.61767 30.4035 3.879V6H29.2065V0.82H30.4035V2.619C30.5248 2.44633 30.6905 2.30867 30.9005 2.206C31.1105 2.10333 31.3461 2.052 31.6075 2.052ZM36.1003 4.985V6H35.4913C35.0573 6 34.7189 5.895 34.4763 5.685C34.2336 5.47033 34.1123 5.12267 34.1123 4.642V3.088H33.6363V2.094H34.1123V1.142H35.3093V2.094H36.0933V3.088H35.3093V4.656C35.3093 4.77267 35.3373 4.85667 35.3933 4.908C35.4493 4.95933 35.5426 4.985 35.6733 4.985H36.1003ZM40.5464 1.016C41.0271 1.016 41.4541 1.12333 41.8274 1.338C42.2007 1.548 42.4901 1.84433 42.6954 2.227C42.9054 2.60967 43.0104 3.04367 43.0104 3.529C43.0104 4.01433 42.9054 4.44833 42.6954 4.831C42.4901 5.21367 42.2007 5.51233 41.8274 5.727C41.4541 5.94167 41.0271 6.049 40.5464 6.049C40.0657 6.049 39.6387 5.94167 39.2654 5.727C38.8921 5.51233 38.6004 5.21367 38.3904 4.831C38.1851 4.44833 38.0824 4.01433 38.0824 3.529C38.0824 3.04367 38.1851 2.60967 38.3904 2.227C38.6004 1.84433 38.8921 1.548 39.2654 1.338C39.6387 1.12333 40.0657 1.016 40.5464 1.016ZM40.5464 1.408C40.1311 1.408 39.7694 1.49433 39.4614 1.667C39.1534 1.83967 38.9154 2.087 38.7474 2.409C38.5841 2.72633 38.5024 3.09967 38.5024 3.529C38.5024 3.95367 38.5841 4.327 38.7474 4.649C38.9154 4.971 39.1534 5.22067 39.4614 5.398C39.7694 5.57067 40.1311 5.657 40.5464 5.657C40.9617 5.657 41.3234 5.57067 41.6314 5.398C41.9394 5.22067 42.1751 4.971 42.3384 4.649C42.5064 4.327 42.5904 3.95367 42.5904 3.529C42.5904 3.09967 42.5064 2.72633 42.3384 2.409C42.1751 2.087 41.9394 1.83967 41.6314 1.667C41.3234 1.49433 40.9617 1.408 40.5464 1.408ZM40.5534 1.954C40.2547 1.954 39.9864 2.01933 39.7484 2.15C39.5151 2.276 39.3307 2.458 39.1954 2.696C39.0647 2.934 38.9994 3.21167 38.9994 3.529C38.9994 3.84633 39.0647 4.124 39.1954 4.362C39.3307 4.6 39.5151 4.78433 39.7484 4.915C39.9864 5.041 40.2547 5.104 40.5534 5.104C40.9221 5.104 41.2394 4.999 41.5054 4.789C41.7714 4.579 41.9417 4.30133 42.0164 3.956H40.9874C40.9081 4.18467 40.7517 4.299 40.5184 4.299C40.3457 4.299 40.2104 4.23367 40.1124 4.103C40.0144 3.97233 39.9654 3.781 39.9654 3.529C39.9654 3.277 40.0144 3.08567 40.1124 2.955C40.2104 2.82433 40.3457 2.759 40.5184 2.759C40.6351 2.759 40.7331 2.78933 40.8124 2.85C40.8964 2.91067 40.9547 2.99467 40.9874 3.102H42.0164C41.9417 2.74733 41.7714 2.46733 41.5054 2.262C41.2441 2.05667 40.9267 1.954 40.5534 1.954ZM45.0279 5.041C45.1865 4.915 45.2589 4.85667 45.2449 4.866C45.7022 4.488 46.0615 4.17767 46.3229 3.935C46.5889 3.69233 46.8129 3.438 46.9949 3.172C47.1769 2.906 47.2679 2.647 47.2679 2.395C47.2679 2.20367 47.2235 2.05433 47.1349 1.947C47.0462 1.83967 46.9132 1.786 46.7359 1.786C46.5585 1.786 46.4185 1.85367 46.3159 1.989C46.2179 2.11967 46.1689 2.30633 46.1689 2.549H45.0139C45.0232 2.15233 45.1072 1.821 45.2659 1.555C45.4292 1.289 45.6415 1.093 45.9029 0.967C46.1689 0.841 46.4629 0.778 46.7849 0.778C47.3402 0.778 47.7579 0.920333 48.0379 1.205C48.3225 1.48967 48.4649 1.86067 48.4649 2.318C48.4649 2.81733 48.2945 3.28167 47.9539 3.711C47.6132 4.13567 47.1792 4.551 46.6519 4.957H48.5419V5.93H45.0279V5.041ZM49.0689 3.375C49.0689 2.57233 49.2229 1.94 49.5309 1.478C49.8436 1.016 50.3452 0.785 51.0359 0.785C51.7266 0.785 52.2259 1.016 52.5339 1.478C52.8466 1.94 53.0029 2.57233 53.0029 3.375C53.0029 4.187 52.8466 4.824 52.5339 5.286C52.2259 5.748 51.7266 5.979 51.0359 5.979C50.3452 5.979 49.8436 5.748 49.5309 5.286C49.2229 4.824 49.0689 4.187 49.0689 3.375ZM51.8269 3.375C51.8269 2.90367 51.7756 2.542 51.6729 2.29C51.5702 2.03333 51.3579 1.905 51.0359 1.905C50.7139 1.905 50.5016 2.03333 50.3989 2.29C50.2962 2.542 50.2449 2.90367 50.2449 3.375C50.2449 3.69233 50.2636 3.956 50.3009 4.166C50.3382 4.37133 50.4129 4.53933 50.5249 4.67C50.6416 4.796 50.8119 4.859 51.0359 4.859C51.2599 4.859 51.4279 4.796 51.5399 4.67C51.6566 4.53933 51.7336 4.37133 51.7709 4.166C51.8082 3.956 51.8269 3.69233 51.8269 3.375ZM53.5933 5.041C53.752 4.915 53.8243 4.85667 53.8103 4.866C54.2676 4.488 54.627 4.17767 54.8883 3.935C55.1543 3.69233 55.3783 3.438 55.5603 3.172C55.7423 2.906 55.8333 2.647 55.8333 2.395C55.8333 2.20367 55.789 2.05433 55.7003 1.947C55.6116 1.83967 55.4786 1.786 55.3013 1.786C55.124 1.786 54.984 1.85367 54.8813 1.989C54.7833 2.11967 54.7343 2.30633 54.7343 2.549H53.5793C53.5886 2.15233 53.6726 1.821 53.8313 1.555C53.9946 1.289 54.207 1.093 54.4683 0.967C54.7343 0.841 55.0283 0.778 55.3503 0.778C55.9056 0.778 56.3233 0.920333 56.6033 1.205C56.888 1.48967 57.0303 1.86067 57.0303 2.318C57.0303 2.81733 56.86 3.28167 56.5193 3.711C56.1786 4.13567 55.7446 4.551 55.2173 4.957H57.1073V5.93H53.5933V5.041ZM57.6763 2.332C57.695 1.83267 57.8583 1.44767 58.1663 1.177C58.4743 0.906333 58.892 0.771 59.4193 0.771C59.7693 0.771 60.068 0.831666 60.3153 0.953C60.5673 1.07433 60.7563 1.24 60.8823 1.45C61.013 1.66 61.0783 1.89567 61.0783 2.157C61.0783 2.465 61.0013 2.717 60.8473 2.913C60.6933 3.10433 60.5137 3.235 60.3083 3.305V3.333C60.5743 3.42167 60.7843 3.56867 60.9383 3.774C61.0923 3.97933 61.1693 4.243 61.1693 4.565C61.1693 4.85433 61.1017 5.111 60.9663 5.335C60.8357 5.55433 60.642 5.727 60.3853 5.853C60.1333 5.979 59.8323 6.042 59.4823 6.042C58.9223 6.042 58.4743 5.90433 58.1383 5.629C57.807 5.35367 57.632 4.93833 57.6133 4.383H58.7753C58.78 4.58833 58.8383 4.75167 58.9503 4.873C59.0623 4.98967 59.2257 5.048 59.4403 5.048C59.6223 5.048 59.7623 4.99667 59.8603 4.894C59.963 4.78667 60.0143 4.64667 60.0143 4.474C60.0143 4.25 59.942 4.089 59.7973 3.991C59.6573 3.88833 59.431 3.837 59.1183 3.837H58.8943V2.864H59.1183C59.3563 2.864 59.5477 2.82433 59.6923 2.745C59.8417 2.661 59.9163 2.514 59.9163 2.304C59.9163 2.136 59.8697 2.00533 59.7763 1.912C59.683 1.81867 59.5547 1.772 59.3913 1.772C59.214 1.772 59.081 1.82567 58.9923 1.933C58.9083 2.04033 58.8593 2.17333 58.8453 2.332H57.6763ZM89.3762 1.086V2.045H87.3742V3.081H88.8722V4.012H87.3742V6H86.1772V1.086H89.3762ZM93.0643 5.132H91.2303L90.9363 6H89.6833L91.4613 1.086H92.8473L94.6253 6H93.3583L93.0643 5.132ZM92.7563 4.208L92.1473 2.409L91.5453 4.208H92.7563ZM99.5624 6H98.3654L96.3634 2.969V6H95.1664V1.086H96.3634L98.3654 4.131V1.086H99.5624V6ZM100.99 6.056C100.78 6.056 100.607 5.99533 100.472 5.874C100.341 5.748 100.276 5.594 100.276 5.412C100.276 5.22533 100.341 5.069 100.472 4.943C100.607 4.817 100.78 4.754 100.99 4.754C101.195 4.754 101.363 4.817 101.494 4.943C101.629 5.069 101.697 5.22533 101.697 5.412C101.697 5.594 101.629 5.748 101.494 5.874C101.363 5.99533 101.195 6.056 100.99 6.056Z" fill="#005EFF"/>
<path d="M66.534 5.132H64.7L64.406 6H63.153L64.931 1.086H66.317L68.095 6H66.828L66.534 5.132ZM66.226 4.208L65.617 2.409L65.015 4.208H66.226ZM73.0321 6H71.8351L69.8331 2.969V6H68.6361V1.086H69.8331L71.8351 4.131V1.086H73.0321V6ZM75.0968 1.086V6H73.8998V1.086H75.0968ZM81.5293 1.086V6H80.3323V3.053L79.2333 6H78.2673L77.1613 3.046V6H75.9643V1.086H77.3783L78.7573 4.488L80.1223 1.086H81.5293ZM83.5871 2.045V3.039H85.1901V3.963H83.5871V5.041H85.4001V6H82.3901V1.086H85.4001V2.045H83.5871Z" fill="#FF007F"/>
</svg>
