<svg width="98" height="24" viewBox="0 0 98 24" fill="none" xmlns="http://www.w3.org/2000/svg">
<path d="M37.6861 14.62H34.6861L34.2301 16H31.7581L34.8421 7.54H37.5541L40.6261 16H38.1421L37.6861 14.62ZM37.0981 12.82L36.1861 10.084L35.2861 12.82H37.0981ZM49.2287 16H46.8767L43.7447 11.272V16H41.3927V7.54H43.7447L46.8767 12.328V7.54H49.2287V16ZM52.9205 7.54V16H50.5685V7.54H52.9205ZM64.1359 7.54V16H61.7839V11.332L60.1879 16H58.2199L56.6119 11.296V16H54.2599V7.54H57.1039L59.2279 13.036L61.3039 7.54H64.1359ZM67.8267 9.424V10.804H70.5267V12.592H67.8267V14.116H70.8867V16H65.4747V7.54H70.8867V9.424H67.8267Z" fill="#FF007F"/>
<path d="M77.785 7.54V9.412H74.401V10.9H76.897V12.688H74.401V16H72.049V7.54H77.785ZM84.1275 14.62H81.1275L80.6715 16H78.1995L81.2835 7.54H83.9955L87.0675 16H84.5835L84.1275 14.62ZM83.5395 12.82L82.6275 10.084L81.7275 12.82H83.5395ZM95.6701 16H93.3181L90.1861 11.272V16H87.8341V7.54H90.1861L93.3181 12.328V7.54H95.6701V16Z" fill="#005EFF"/>
<ellipse cx="12" cy="10" rx="12" ry="10" fill="#FF007F"/>
<path d="M12 0L22.3923 18H1.6077L12 0Z" fill="#005EFF"/>
</svg>
